<svg height="512pt" viewBox="-64 0 512 512" width="512pt" xmlns="http://www.w3.org/2000/svg"><path d="m374.207031 97.539062-46.695312-19.339843h40.953125c8.285156 0 15-6.714844 15-15v-48.199219c0-8.285156-6.714844-15-15-15h-144.597656c-20.09375 0-38.015626 9.4375-49.597657 24.101562h-103.035156c-30.421875 0-55.167969 24.746094-55.167969 55.164063v272.304687l-15.972656 143.773438c-.472656 4.238281.882812 8.480469 3.730469 11.660156 2.84375 3.179688 6.910156 4.996094 11.175781 4.996094h80.332031.019531c8.285157 0 15-6.71875 15-15 0-.839844-.066406-1.664062-.199218-2.464844l-15.886719-142.96875v-249.265625h80.003906c1.476563 1.867188 3.046875 3.65625 4.71875 5.34375-30 16.078125-50.453125 47.738281-50.453125 84.089844v265.097656c0 30.421875 24.746094 55.167969 55.164063 55.167969h80.335937c30.417969 0 55.164063-24.746094 55.164063-55.167969v-265.097656c0-12.390625-2.378907-24.238281-6.699219-35.109375l31.78125 13.164062c1.839844.761719 3.789062 1.144532 5.738281 1.144532 1.953125 0 3.902344-.382813 5.742188-1.144532 3.675781-1.519531 6.59375-4.441406 8.117187-8.117187l18.445313-44.53125c3.171875-7.65625-.464844-16.429687-8.117188-19.601563zm-20.742187-49.339843h-68.210938c-1.59375-6.519531-4.195312-12.644531-7.640625-18.199219h75.851563zm-321.707032 433.800781 12.734376-114.597656h21.347656l12.734375 114.597656zm47.507813-409.699219c-8.28125 0-15 6.714844-15 15v250.097657h-18.199219v-258.132813c0-13.875 11.289063-25.164063 25.167969-25.164063h90.097656c-.429687 2.972657-.664062 6.007813-.664062 9.097657 0 3.089843.234375 6.128906.664062 9.101562zm111.402344-9.101562c0-18.304688 14.894531-33.199219 33.199219-33.199219 18.304687 0 33.199218 14.894531 33.199218 33.199219 0 18.304687-14.894531 33.199219-33.199218 33.199219-18.304688 0-33.199219-14.894532-33.199219-33.199219zm33.199219 63.199219c36.023437 0 65.332031 29.308593 65.332031 65.335937v49.265625h-130.667969v-49.265625c0-36.027344 29.308594-65.335937 65.335938-65.335937zm-65.335938 144.601562h130.667969v114.597656h-130.667969zm105.5 211h-80.332031c-13.875 0-25.167969-11.289062-25.167969-25.167969v-41.234375h130.667969v41.234375c0 13.878907-11.289063 25.167969-25.167969 25.167969zm77.871094-345.667969-72.054688-29.84375c4.261719-4.523437 7.863282-9.667969 10.65625-15.289062l68.363282 28.316406zm0 0"/></svg>