<?xml version="1.0" encoding="iso-8859-1"?>
<!-- Generator: Adobe Illustrator 19.0.0, SVG Export Plug-In . SVG Version: 6.00 Build 0)  -->
<svg version="1.1" id="Layer_1" xmlns="http://www.w3.org/2000/svg" xmlns:xlink="http://www.w3.org/1999/xlink" x="0px" y="0px"
	 viewBox="0 0 512.005 512.005" style="enable-background:new 0 0 512.005 512.005;" xml:space="preserve">
<rect x="67.954" y="103.896" style="fill:#FEB860;" width="320.083" height="408.099"/>
<rect x="67.954" y="103.896" style="fill:#FEC986;" width="160.036" height="408.099"/>
<rect x="412.038" y="271.94" style="fill:#C8546F;" width="64.016" height="96.024"/>
<rect x="35.95" y="7.872" style="fill:#9B4573;" width="384.096" height="64.017"/>
<g>
	<polygon style="fill:#1D1D1B;" points="395.908,512 380.165,512 380.165,111.767 75.826,111.767 75.826,512 60.082,512 
		60.082,96.024 395.908,96.024 	"/>
	<rect x="220.126" y="119.901" style="fill:#1D1D1B;" width="15.743" height="392.104"/>
</g>
<g>
	<rect x="59.953" y="32.008" style="fill:#FFFFFF;" width="16.005" height="15.743"/>
	<rect x="91.965" y="32.008" style="fill:#FFFFFF;" width="16.004" height="15.743"/>
	<rect x="123.966" y="32.008" style="fill:#FFFFFF;" width="16.004" height="15.743"/>
	<rect x="155.977" y="32.008" style="fill:#FFFFFF;" width="16.004" height="15.743"/>
	<rect x="187.989" y="32.008" style="fill:#FFFFFF;" width="16.005" height="15.743"/>
	<rect x="219.99" y="32.008" style="fill:#FFFFFF;" width="16.004" height="15.743"/>
	<rect x="252.001" y="32.008" style="fill:#FFFFFF;" width="16.004" height="15.743"/>
	<rect x="284.013" y="32.008" style="fill:#FFFFFF;" width="16.004" height="15.743"/>
	<rect x="316.014" y="32.008" style="fill:#FFFFFF;" width="16.005" height="15.743"/>
	<rect x="348.025" y="32.008" style="fill:#FFFFFF;" width="16.005" height="15.743"/>
	<rect x="380.037" y="32.008" style="fill:#FFFFFF;" width="16.004" height="15.743"/>
</g>
<path style="fill:#1D1D1B;" d="M427.916,79.76H28.075V0h399.841V79.76z M43.818,64.017h368.355V15.743H43.818V64.017z"/>
<g>
	<rect x="436.177" y="295.944" style="fill:#FFFFFF;" width="15.743" height="16.004"/>
	<rect x="436.177" y="327.955" style="fill:#FFFFFF;" width="15.743" height="16.005"/>
</g>
<path style="fill:#1D1D1B;" d="M483.93,375.835h-79.759V264.067h79.759V375.835z M419.915,360.091h48.272V279.81h-48.272V360.091z"
	/>
<g>
	
		<rect x="130.088" y="148.159" transform="matrix(-0.7071 -0.7071 0.7071 -0.7071 92.7385 442.2362)" style="fill:#FFFFFF;" width="15.743" height="107.505"/>
	
		<rect x="152.087" y="218.951" transform="matrix(-0.7071 -0.7071 0.7071 -0.7071 106.241 515.8614)" style="fill:#FFFFFF;" width="15.743" height="33.953"/>
	
		<rect x="292.13" y="330.689" transform="matrix(-0.7071 -0.7071 0.7071 -0.7071 246.294 853.9308)" style="fill:#FFFFFF;" width="15.743" height="90.534"/>
	
		<rect x="320.123" y="383.675" transform="matrix(-0.7071 -0.7071 0.7071 -0.7071 268.6174 935.1979)" style="fill:#FFFFFF;" width="15.743" height="56.582"/>
	
		<rect x="272.121" y="442.996" transform="matrix(-0.7071 -0.7071 0.7071 -0.7071 152.7279 983.2076)" style="fill:#FFFFFF;" width="15.743" height="33.953"/>
</g>
<g>
</g>
<g>
</g>
<g>
</g>
<g>
</g>
<g>
</g>
<g>
</g>
<g>
</g>
<g>
</g>
<g>
</g>
<g>
</g>
<g>
</g>
<g>
</g>
<g>
</g>
<g>
</g>
<g>
</g>
</svg>
