<?xml version="1.0" encoding="iso-8859-1"?>
<!-- Generator: Adobe Illustrator 19.0.0, SVG Export Plug-In . SVG Version: 6.00 Build 0)  -->
<svg version="1.1" id="Layer_1" xmlns="http://www.w3.org/2000/svg" xmlns:xlink="http://www.w3.org/1999/xlink" x="0px" y="0px"
	 viewBox="0 0 512 512" style="enable-background:new 0 0 512 512;" xml:space="preserve">
<path style="fill:#CFDCE5;" d="M503.306,187.571v35.915h-11.212h-56.058h-16.195l-277.8,161.946V248.401l277.8-79.727h64.567
	C494.847,168.673,503.306,177.132,503.306,187.571z"/>
<polygon style="fill:#BAC6CC;" points="502.06,199.83 417.35,199.83 142.041,318.175 142.041,385.433 419.841,223.486 
	503.306,223.486 "/>
<path style="fill:#CFDCE5;" d="M282.828,82.772L282.828,82.772c3.562,9.973-0.759,21.047-10.133,25.972l-130.655,68.649H9.992
	v-27.082c0-18.761,13.479-34.794,31.966-37.983c57.532-9.934,172.093-33.857,216.473-43.211
	C268.835,66.924,279.252,72.758,282.828,82.772z"/>
<rect x="436.035" y="223.486" style="fill:#BAC6CC;" width="56.058" height="29.898"/>
<polygon style="fill:#CFDCE5;" points="142.041,416.576 142.041,443.335 9.992,443.335 9.992,177.394 142.041,177.394 
	142.041,279.545 "/>
<g>
	<polygon style="fill:#BAC6CC;" points="43.627,416.576 43.627,443.335 9.992,443.335 9.992,177.394 43.627,177.394 43.627,279.545 
			"/>
	<path style="fill:#BAC6CC;" d="M282.81,86.467l-112.591,39.926c-41.732,14.798-85.685,22.361-129.963,22.361H9.992v28.64h132.049
		l133.683-70.24C283.196,103.227,286.305,94.151,282.81,86.467L282.81,86.467z"/>
</g>
<path style="fill:#4EBFED;" d="M488.178,322.23l-24.113-24.113l-24.113,24.113c-13.317,13.317-13.317,34.908,0,48.225l0,0
	c13.317,13.317,34.908,13.317,48.225,0l0,0C501.495,357.138,501.495,335.547,488.178,322.23z"/>
<path d="M483.759,159.33h-64.567c-0.872,0-1.739,0.122-2.577,0.363l-156.252,44.843c-4.959,1.424-7.827,6.597-6.403,11.558
	c1.424,4.961,6.604,7.828,11.558,6.403l154.989-44.48h63.251c5.268,0,9.555,4.287,9.555,9.555v26.572h-1.869h-72.253
	c-1.653,0-3.276,0.439-4.705,1.272L150.735,369.171V255.439l83.933-24.089c4.959-1.424,7.827-6.597,6.403-11.558
	s-6.597-7.828-11.558-6.403L150.735,236v-52.961l125.658-66.024c13.41-7.046,19.681-23.118,14.586-37.385
	c-5.122-14.346-20.221-22.791-35.125-19.655C209.893,69.662,96.827,93.26,39.72,103.121C16.705,107.091,0,126.937,0,150.31v57.604
	c0,5.16,4.183,9.343,9.343,9.343s9.343-4.183,9.343-9.343v-21.178h113.363v61.452c0,0.003,0,0.005,0,0.007v185.795H18.686V240.305
	c0-5.16-4.183-9.343-9.343-9.343S0,235.145,0,240.305v203.03c0,5.16,4.183,9.343,9.343,9.343h132.049
	c5.16,0,9.343-4.183,9.343-9.343v-52.534l270.981-157.971h4.328v20.555c0,5.16,4.183,9.343,9.343,9.343h56.058
	c5.16,0,9.343-4.183,9.343-9.343v-20.555h1.869c5.16,0,9.343-4.183,9.343-9.343v-35.915C512,171.998,499.331,159.33,483.759,159.33z
	 M18.686,150.31c0-14.254,10.181-26.355,24.212-28.775c57.414-9.914,170.748-33.567,216.809-43.276
	c5.803-1.223,11.679,2.069,13.674,7.655c1.984,5.556-0.458,11.815-5.681,14.559l-128.615,67.578h-120.4V150.31z M482.102,244.041
	H444.73v-11.212h37.372V244.041z"/>
<path d="M470.022,291.511c-3.648-3.65-9.564-3.649-13.212,0l-24.113,24.113c-16.938,16.94-16.938,44.5,0,61.439
	c8.47,8.469,19.594,12.704,30.719,12.704c11.126,0,22.25-4.234,30.72-12.704c16.938-16.938,16.938-44.499,0-61.439L470.022,291.511z
	 M480.922,363.849c-9.653,9.652-25.36,9.653-35.013,0s-9.653-25.36,0-35.013l17.506-17.506l17.506,17.506
	C490.574,338.489,490.574,354.197,480.922,363.849z"/>
<g>
</g>
<g>
</g>
<g>
</g>
<g>
</g>
<g>
</g>
<g>
</g>
<g>
</g>
<g>
</g>
<g>
</g>
<g>
</g>
<g>
</g>
<g>
</g>
<g>
</g>
<g>
</g>
<g>
</g>
</svg>
